<?xml version="1.0" encoding="UTF-8" standalone="no"?>
<!DOCTYPE svg PUBLIC "-//W3C//DTD SVG 1.1//EN"
 "http://www.w3.org/Graphics/SVG/1.1/DTD/svg11.dtd">
<!-- Generated by graphviz version 2.40.1 (20161225.0304)
 -->
<!-- Title: %3 Pages: 1 -->
<svg width="470pt" height="799pt"
 viewBox="0.00 0.00 469.65 799.00" xmlns="http://www.w3.org/2000/svg" xmlns:xlink="http://www.w3.org/1999/xlink">
<g id="graph0" class="graph" transform="scale(1 1) rotate(0) translate(4 795)">
<title>%3</title>
<polygon fill="#ffffff" stroke="transparent" points="-4,4 -4,-795 465.6465,-795 465.6465,4 -4,4"/>
<!-- uberblock -->
<g id="node1" class="node">
<title>uberblock</title>
<ellipse fill="none" stroke="#000000" cx="211.6465" cy="-773" rx="57.6901" ry="18"/>
<text text-anchor="middle" x="211.6465" y="-769.3" font-family="Times,serif" font-size="14.00" fill="#000000">uberblock</text>
</g>
<!-- mos_dnode -->
<g id="node2" class="node">
<title>mos_dnode</title>
<ellipse fill="none" stroke="#000000" cx="211.6465" cy="-700" rx="63.0888" ry="18"/>
<text text-anchor="middle" x="211.6465" y="-696.3" font-family="Times,serif" font-size="14.00" fill="#000000">mos_dnode</text>
</g>
<!-- uberblock&#45;&gt;mos_dnode -->
<g id="edge1" class="edge">
<title>uberblock&#45;&gt;mos_dnode</title>
<path fill="none" stroke="#000000" d="M211.6465,-754.9551C211.6465,-746.8828 211.6465,-737.1764 211.6465,-728.1817"/>
<polygon fill="#000000" stroke="#000000" points="215.1466,-728.0903 211.6465,-718.0904 208.1466,-728.0904 215.1466,-728.0903"/>
</g>
<!-- mos_obj1 -->
<g id="node3" class="node">
<title>mos_obj1</title>
<ellipse fill="none" stroke="#000000" cx="211.6465" cy="-627" rx="54.6905" ry="18"/>
<text text-anchor="middle" x="211.6465" y="-623.3" font-family="Times,serif" font-size="14.00" fill="#000000">mos_obj1</text>
</g>
<!-- mos_dnode&#45;&gt;mos_obj1 -->
<g id="edge2" class="edge">
<title>mos_dnode&#45;&gt;mos_obj1</title>
<path fill="none" stroke="#000000" d="M211.6465,-681.9551C211.6465,-673.8828 211.6465,-664.1764 211.6465,-655.1817"/>
<polygon fill="#000000" stroke="#000000" points="215.1466,-655.0903 211.6465,-645.0904 208.1466,-655.0904 215.1466,-655.0903"/>
</g>
<!-- mos_obj32 -->
<g id="node4" class="node">
<title>mos_obj32</title>
<ellipse fill="#ffff00" stroke="#000000" cx="211.6465" cy="-540" rx="60.3893" ry="18"/>
<text text-anchor="middle" x="211.6465" y="-536.3" font-family="Times,serif" font-size="14.00" fill="#000000">mos_obj32</text>
</g>
<!-- mos_obj1&#45;&gt;mos_obj32 -->
<g id="edge3" class="edge">
<title>mos_obj1&#45;&gt;mos_obj32</title>
<path fill="none" stroke="#000000" d="M211.6465,-608.9735C211.6465,-597.1918 211.6465,-581.5607 211.6465,-568.1581"/>
<polygon fill="#000000" stroke="#000000" points="215.1466,-568.0033 211.6465,-558.0034 208.1466,-568.0034 215.1466,-568.0033"/>
<text text-anchor="middle" x="257.1465" y="-579.8" font-family="Times,serif" font-size="14.00" fill="#000000">root_dataset</text>
</g>
<!-- mos_obj54 -->
<g id="node5" class="node">
<title>mos_obj54</title>
<ellipse fill="none" stroke="#000000" cx="68.6465" cy="-453" rx="60.3893" ry="18"/>
<text text-anchor="middle" x="68.6465" y="-449.3" font-family="Times,serif" font-size="14.00" fill="#000000">mos_obj54</text>
</g>
<!-- mos_obj32&#45;&gt;mos_obj54 -->
<g id="edge4" class="edge">
<title>mos_obj32&#45;&gt;mos_obj54</title>
<path fill="none" stroke="#000000" d="M155.0539,-533.3771C118.5935,-527.8126 75.9597,-518.4181 64.6465,-504 59.6351,-497.6133 58.7124,-489.2855 59.5974,-481.2169"/>
<polygon fill="#000000" stroke="#000000" points="63.0526,-481.7836 61.5136,-471.3011 56.1798,-480.4554 63.0526,-481.7836"/>
<text text-anchor="middle" x="127.1465" y="-492.8" font-family="Times,serif" font-size="14.00" fill="#000000">head_dataset_obj</text>
</g>
<!-- mos_obj34 -->
<g id="node6" class="node">
<title>mos_obj34</title>
<ellipse fill="none" stroke="#000000" cx="284.6465" cy="-453" rx="60.3893" ry="18"/>
<text text-anchor="middle" x="284.6465" y="-449.3" font-family="Times,serif" font-size="14.00" fill="#000000">mos_obj34</text>
</g>
<!-- mos_obj32&#45;&gt;mos_obj34 -->
<g id="edge6" class="edge">
<title>mos_obj32&#45;&gt;mos_obj34</title>
<path fill="none" stroke="#000000" d="M240.1504,-523.9569C248.1915,-518.4208 256.4321,-511.6582 262.6465,-504 268.1757,-497.1862 272.5539,-488.7723 275.9006,-480.7569"/>
<polygon fill="#000000" stroke="#000000" points="279.2091,-481.9032 279.4795,-471.3118 272.6632,-479.4228 279.2091,-481.9032"/>
<text text-anchor="middle" x="330.6465" y="-492.8" font-family="Times,serif" font-size="14.00" fill="#000000">child_dir_zapobj</text>
</g>
<!-- mos_obj54&#45;&gt;mos_obj32 -->
<g id="edge20" class="edge">
<title>mos_obj54&#45;&gt;mos_obj32</title>
<path fill="none" stroke="#000000" d="M118.3784,-463.3181C146.7587,-470.0516 178.7914,-479.3565 189.6465,-489 196.486,-495.0761 201.2776,-503.6533 204.5999,-512.0432"/>
<polygon fill="#000000" stroke="#000000" points="201.3307,-513.3011 207.8597,-521.6451 207.9591,-511.0508 201.3307,-513.3011"/>
<text text-anchor="middle" x="225.6465" y="-492.8" font-family="Times,serif" font-size="14.00" fill="#000000">dir_obj</text>
</g>
<!-- dataset_test -->
<g id="node8" class="node">
<title>dataset_test</title>
<ellipse fill="#00ff00" stroke="#000000" cx="68.6465" cy="-366" rx="31.6951" ry="18"/>
<text text-anchor="middle" x="68.6465" y="-362.3" font-family="Times,serif" font-size="14.00" fill="#000000">test/</text>
</g>
<!-- mos_obj54&#45;&gt;dataset_test -->
<g id="edge7" class="edge">
<title>mos_obj54&#45;&gt;dataset_test</title>
<path fill="none" stroke="#000000" d="M68.6465,-434.9735C68.6465,-423.1918 68.6465,-407.5607 68.6465,-394.1581"/>
<polygon fill="#000000" stroke="#000000" points="72.1466,-394.0033 68.6465,-384.0034 65.1466,-394.0034 72.1466,-394.0033"/>
<text text-anchor="middle" x="78.1465" y="-405.8" font-family="Times,serif" font-size="14.00" fill="#000000">bp</text>
</g>
<!-- mos_obj257 -->
<g id="node7" class="node">
<title>mos_obj257</title>
<ellipse fill="#ffff00" stroke="#000000" cx="284.6465" cy="-366" rx="66.0889" ry="18"/>
<text text-anchor="middle" x="284.6465" y="-362.3" font-family="Times,serif" font-size="14.00" fill="#000000">mos_obj257</text>
</g>
<!-- mos_obj34&#45;&gt;mos_obj257 -->
<g id="edge5" class="edge">
<title>mos_obj34&#45;&gt;mos_obj257</title>
<path fill="none" stroke="#000000" d="M284.6465,-434.9735C284.6465,-423.1918 284.6465,-407.5607 284.6465,-394.1581"/>
<polygon fill="#000000" stroke="#000000" points="288.1466,-394.0033 284.6465,-384.0034 281.1466,-394.0034 288.1466,-394.0033"/>
<text text-anchor="middle" x="289.1465" y="-405.8" font-family="Times,serif" font-size="14.00" fill="#000000">a</text>
</g>
<!-- mos_obj260 -->
<g id="node9" class="node">
<title>mos_obj260</title>
<ellipse fill="none" stroke="#000000" cx="201.6465" cy="-279" rx="66.0889" ry="18"/>
<text text-anchor="middle" x="201.6465" y="-275.3" font-family="Times,serif" font-size="14.00" fill="#000000">mos_obj260</text>
</g>
<!-- mos_obj257&#45;&gt;mos_obj260 -->
<g id="edge8" class="edge">
<title>mos_obj257&#45;&gt;mos_obj260</title>
<path fill="none" stroke="#000000" d="M223.7149,-358.701C188.2803,-353.064 148.5137,-343.8497 137.6465,-330 128.1889,-317.9468 138.0551,-306.9987 152.6435,-298.3633"/>
<polygon fill="#000000" stroke="#000000" points="154.4882,-301.3463 161.6682,-293.5554 151.1969,-295.1683 154.4882,-301.3463"/>
<text text-anchor="middle" x="200.1465" y="-318.8" font-family="Times,serif" font-size="14.00" fill="#000000">head_dataset_obj</text>
</g>
<!-- mos_obj259 -->
<g id="node10" class="node">
<title>mos_obj259</title>
<ellipse fill="none" stroke="#000000" cx="357.6465" cy="-279" rx="66.0889" ry="18"/>
<text text-anchor="middle" x="357.6465" y="-275.3" font-family="Times,serif" font-size="14.00" fill="#000000">mos_obj259</text>
</g>
<!-- mos_obj257&#45;&gt;mos_obj259 -->
<g id="edge9" class="edge">
<title>mos_obj257&#45;&gt;mos_obj259</title>
<path fill="none" stroke="#000000" d="M313.4155,-349.7739C321.3723,-344.2721 329.5004,-337.5741 335.6465,-330 341.1757,-323.1862 345.5539,-314.7723 348.9006,-306.7569"/>
<polygon fill="#000000" stroke="#000000" points="352.2091,-307.9032 352.4795,-297.3118 345.6632,-305.4228 352.2091,-307.9032"/>
<text text-anchor="middle" x="402.6465" y="-318.8" font-family="Times,serif" font-size="14.00" fill="#000000">child_dir_zapobj</text>
</g>
<!-- test_1 -->
<g id="node13" class="node">
<title>test_1</title>
<ellipse fill="none" stroke="#000000" cx="68.6465" cy="-279" rx="39.7935" ry="18"/>
<text text-anchor="middle" x="68.6465" y="-275.3" font-family="Times,serif" font-size="14.00" fill="#000000">test_1</text>
</g>
<!-- dataset_test&#45;&gt;test_1 -->
<g id="edge13" class="edge">
<title>dataset_test&#45;&gt;test_1</title>
<path fill="none" stroke="#000000" d="M68.6465,-347.9735C68.6465,-336.1918 68.6465,-320.5607 68.6465,-307.1581"/>
<polygon fill="#000000" stroke="#000000" points="72.1466,-307.0033 68.6465,-297.0034 65.1466,-307.0034 72.1466,-307.0033"/>
</g>
<!-- mos_obj260&#45;&gt;mos_obj257 -->
<g id="edge11" class="edge">
<title>mos_obj260&#45;&gt;mos_obj257</title>
<path fill="none" stroke="#000000" d="M236.4159,-294.4902C245.8322,-299.937 255.4098,-306.7897 262.6465,-315 268.5394,-321.6858 273.0447,-330.1913 276.3964,-338.3313"/>
<polygon fill="#000000" stroke="#000000" points="273.1909,-339.7553 279.9282,-347.932 279.7605,-337.3385 273.1909,-339.7553"/>
<text text-anchor="middle" x="297.6465" y="-318.8" font-family="Times,serif" font-size="14.00" fill="#000000">dir_obj</text>
</g>
<!-- test_a -->
<g id="node12" class="node">
<title>test_a</title>
<ellipse fill="#00ff00" stroke="#000000" cx="201.6465" cy="-192" rx="37.0935" ry="18"/>
<text text-anchor="middle" x="201.6465" y="-188.3" font-family="Times,serif" font-size="14.00" fill="#000000">test/a</text>
</g>
<!-- mos_obj260&#45;&gt;test_a -->
<g id="edge12" class="edge">
<title>mos_obj260&#45;&gt;test_a</title>
<path fill="none" stroke="#000000" d="M201.6465,-260.9735C201.6465,-249.1918 201.6465,-233.5607 201.6465,-220.1581"/>
<polygon fill="#000000" stroke="#000000" points="205.1466,-220.0033 201.6465,-210.0034 198.1466,-220.0034 205.1466,-220.0033"/>
<text text-anchor="middle" x="211.1465" y="-231.8" font-family="Times,serif" font-size="14.00" fill="#000000">bp</text>
</g>
<!-- mos_obj68 -->
<g id="node11" class="node">
<title>mos_obj68</title>
<ellipse fill="#ffff00" stroke="#000000" cx="357.6465" cy="-192" rx="60.3893" ry="18"/>
<text text-anchor="middle" x="357.6465" y="-188.3" font-family="Times,serif" font-size="14.00" fill="#000000">mos_obj68</text>
</g>
<!-- mos_obj259&#45;&gt;mos_obj68 -->
<g id="edge10" class="edge">
<title>mos_obj259&#45;&gt;mos_obj68</title>
<path fill="none" stroke="#000000" d="M357.6465,-260.9735C357.6465,-249.1918 357.6465,-233.5607 357.6465,-220.1581"/>
<polygon fill="#000000" stroke="#000000" points="361.1466,-220.0033 357.6465,-210.0034 354.1466,-220.0034 361.1466,-220.0033"/>
<text text-anchor="middle" x="362.6465" y="-231.8" font-family="Times,serif" font-size="14.00" fill="#000000">b</text>
</g>
<!-- mos_obj71 -->
<g id="node17" class="node">
<title>mos_obj71</title>
<ellipse fill="none" stroke="#000000" cx="325.6465" cy="-105" rx="60.3893" ry="18"/>
<text text-anchor="middle" x="325.6465" y="-101.3" font-family="Times,serif" font-size="14.00" fill="#000000">mos_obj71</text>
</g>
<!-- mos_obj68&#45;&gt;mos_obj71 -->
<g id="edge17" class="edge">
<title>mos_obj68&#45;&gt;mos_obj71</title>
<path fill="none" stroke="#000000" d="M309.006,-181.1756C295.9807,-175.8188 283.383,-167.8458 275.6465,-156 268.6628,-145.307 275.3929,-134.9626 285.9319,-126.4173"/>
<polygon fill="#000000" stroke="#000000" points="288.0502,-129.2052 294.1375,-120.5337 283.9711,-123.5165 288.0502,-129.2052"/>
<text text-anchor="middle" x="338.1465" y="-144.8" font-family="Times,serif" font-size="14.00" fill="#000000">head_dataset_obj</text>
</g>
<!-- test_34 -->
<g id="node14" class="node">
<title>test_34</title>
<ellipse fill="none" stroke="#000000" cx="68.6465" cy="-192" rx="45.4919" ry="18"/>
<text text-anchor="middle" x="68.6465" y="-188.3" font-family="Times,serif" font-size="14.00" fill="#000000">test_34</text>
</g>
<!-- test_1&#45;&gt;test_34 -->
<g id="edge14" class="edge">
<title>test_1&#45;&gt;test_34</title>
<path fill="none" stroke="#000000" d="M68.6465,-260.9735C68.6465,-249.1918 68.6465,-233.5607 68.6465,-220.1581"/>
<polygon fill="#000000" stroke="#000000" points="72.1466,-220.0033 68.6465,-210.0034 65.1466,-220.0034 72.1466,-220.0033"/>
<text text-anchor="middle" x="91.1465" y="-231.8" font-family="Times,serif" font-size="14.00" fill="#000000">ROOT</text>
</g>
<!-- test_2 -->
<g id="node15" class="node">
<title>test_2</title>
<ellipse fill="none" stroke="#000000" cx="39.6465" cy="-105" rx="39.7935" ry="18"/>
<text text-anchor="middle" x="39.6465" y="-101.3" font-family="Times,serif" font-size="14.00" fill="#000000">test_2</text>
</g>
<!-- test_34&#45;&gt;test_2 -->
<g id="edge15" class="edge">
<title>test_34&#45;&gt;test_2</title>
<path fill="none" stroke="#000000" d="M62.6377,-173.9735C58.6715,-162.0751 53.3967,-146.2508 48.9,-132.7606"/>
<polygon fill="#000000" stroke="#000000" points="52.1303,-131.3834 45.6476,-123.0034 45.4896,-133.597 52.1303,-131.3834"/>
<text text-anchor="middle" x="61.1465" y="-144.8" font-family="Times,serif" font-size="14.00" fill="#000000">a</text>
</g>
<!-- test_128 -->
<g id="node16" class="node">
<title>test_128</title>
<ellipse fill="none" stroke="#000000" cx="148.6465" cy="-105" rx="51.1914" ry="18"/>
<text text-anchor="middle" x="148.6465" y="-101.3" font-family="Times,serif" font-size="14.00" fill="#000000">test_128</text>
</g>
<!-- test_34&#45;&gt;test_128 -->
<g id="edge16" class="edge">
<title>test_34&#45;&gt;test_128</title>
<path fill="none" stroke="#000000" d="M84.4519,-174.8116C96.2856,-161.9425 112.6446,-144.152 125.8865,-129.7515"/>
<polygon fill="#000000" stroke="#000000" points="128.6815,-131.8828 132.8739,-122.1527 123.5288,-127.1446 128.6815,-131.8828"/>
<text text-anchor="middle" x="140.1465" y="-144.8" font-family="Times,serif" font-size="14.00" fill="#000000">test.txt</text>
</g>
<!-- mos_obj71&#45;&gt;mos_obj68 -->
<g id="edge19" class="edge">
<title>mos_obj71&#45;&gt;mos_obj68</title>
<path fill="none" stroke="#000000" d="M371.0149,-117.0823C382.6498,-122.4542 393.8006,-130.1202 400.6465,-141 406.8761,-150.9003 401.4969,-160.927 392.6995,-169.4394"/>
<polygon fill="#000000" stroke="#000000" points="390.4316,-166.7735 385.0677,-175.9101 394.9586,-172.1127 390.4316,-166.7735"/>
<text text-anchor="middle" x="427.6465" y="-144.8" font-family="Times,serif" font-size="14.00" fill="#000000">dir_obj</text>
</g>
<!-- test_a_b -->
<g id="node18" class="node">
<title>test_a_b</title>
<ellipse fill="#00ff00" stroke="#000000" cx="325.6465" cy="-18" rx="46.2923" ry="18"/>
<text text-anchor="middle" x="325.6465" y="-14.3" font-family="Times,serif" font-size="14.00" fill="#000000">test/a/b</text>
</g>
<!-- mos_obj71&#45;&gt;test_a_b -->
<g id="edge18" class="edge">
<title>mos_obj71&#45;&gt;test_a_b</title>
<path fill="none" stroke="#000000" d="M325.6465,-86.9735C325.6465,-75.1918 325.6465,-59.5607 325.6465,-46.1581"/>
<polygon fill="#000000" stroke="#000000" points="329.1466,-46.0033 325.6465,-36.0034 322.1466,-46.0034 329.1466,-46.0033"/>
<text text-anchor="middle" x="335.1465" y="-57.8" font-family="Times,serif" font-size="14.00" fill="#000000">bp</text>
</g>
</g>
</svg>
